<svg xmlns="http://www.w3.org/2000/svg" xmlns:xlink="http://www.w3.org/1999/xlink" width="500" zoomAndPan="magnify" viewBox="0 0 375 374.999991" height="500" preserveAspectRatio="xMidYMid meet" version="1.0"><defs><g/></defs><g fill="#ff914d" fill-opacity="1"><g transform="translate(98.547244, 229.124985)"><g><path d="M 210.59375 -115.5 C 210.59375 -111.601562 209.164062 -107.351562 206.3125 -102.75 C 203.46875 -98.144531 199.546875 -93.394531 194.546875 -88.5 C 189.546875 -83.601562 183.742188 -78.753906 177.140625 -73.953125 C 170.546875 -69.148438 163.445312 -64.550781 155.84375 -60.15625 C 153.644531 -57.15625 151.59375 -54.300781 149.6875 -51.59375 C 147.789062 -48.894531 146.046875 -46.394531 144.453125 -44.09375 C 139.253906 -36.59375 134.15625 -29.117188 129.15625 -21.671875 C 124.15625 -14.222656 119.503906 -7.296875 115.203125 -0.890625 C 110.898438 5.503906 107.171875 11.023438 104.015625 15.671875 C 100.867188 20.328125 98.597656 23.703125 97.203125 25.796875 C 100.097656 22.597656 102.445312 19.847656 104.25 17.546875 C 106.050781 15.242188 107.703125 13.445312 109.203125 12.15625 C 110.503906 10.945312 111.378906 10.566406 111.828125 11.015625 C 112.273438 11.472656 112.398438 12.300781 112.203125 13.5 C 112.003906 14.695312 111.503906 15.796875 110.703125 16.796875 C 109.296875 18.796875 107.441406 21.695312 105.140625 25.5 C 102.847656 29.300781 100.398438 33.453125 97.796875 37.953125 C 95.203125 42.453125 92.65625 46.722656 90.15625 50.765625 C 87.65625 54.816406 85.476562 58.144531 83.625 60.75 C 81.769531 63.351562 80.492188 64.65625 79.796875 64.65625 C 77.898438 64.75 76.722656 64.09375 76.265625 62.6875 C 75.816406 61.289062 75.34375 59.992188 74.84375 58.796875 C 73.945312 56.492188 74.097656 53.84375 75.296875 50.84375 C 76.492188 47.84375 78.09375 44.242188 80.09375 40.046875 C 82.394531 35.347656 85.46875 29.875 89.3125 23.625 C 93.164062 17.375 97.59375 10.597656 102.59375 3.296875 C 107.59375 -4.003906 112.816406 -11.601562 118.265625 -19.5 C 123.722656 -27.394531 129.148438 -35.296875 134.546875 -43.203125 C 135.546875 -44.597656 136.546875 -46.046875 137.546875 -47.546875 C 138.546875 -49.046875 139.546875 -50.5 140.546875 -51.90625 C 134.742188 -49.101562 128.039062 -46.523438 120.4375 -44.171875 C 112.84375 -41.828125 104.921875 -39.800781 96.671875 -38.09375 C 88.421875 -36.394531 80.421875 -35.070312 72.671875 -34.125 C 64.921875 -33.175781 57.945312 -32.648438 51.75 -32.546875 C 44.945312 -24.648438 37.84375 -16.578125 30.4375 -8.328125 C 23.039062 -0.078125 15.644531 8.097656 8.25 16.203125 C 6.945312 17.597656 5.492188 18.242188 3.890625 18.140625 C 2.296875 18.046875 1.125 17.445312 0.375 16.34375 C -0.375 15.25 -0.148438 14.050781 1.046875 12.75 C 4.347656 7.644531 7.570312 2.46875 10.71875 -2.78125 C 13.875 -8.03125 16.453125 -13.078125 18.453125 -17.921875 C 20.453125 -22.773438 21.347656 -27.097656 21.140625 -30.890625 C 20.941406 -34.691406 19.046875 -37.59375 15.453125 -39.59375 C 14.648438 -40 14.398438 -40.898438 14.703125 -42.296875 C 15.003906 -43.703125 15.628906 -44.953125 16.578125 -46.046875 C 17.523438 -47.148438 18.445312 -47.5 19.34375 -47.09375 C 20.144531 -46.695312 20.96875 -46.296875 21.8125 -45.890625 C 22.664062 -45.492188 23.59375 -45.046875 24.59375 -44.546875 L 24.75 -44.703125 L 24.90625 -44.546875 C 27.40625 -43.453125 30.425781 -42.425781 33.96875 -41.46875 C 37.519531 -40.519531 42.25 -39.945312 48.15625 -39.75 C 57.351562 -50.75 65.273438 -60.820312 71.921875 -69.96875 C 78.578125 -79.125 83.703125 -87.097656 87.296875 -93.890625 C 90.898438 -100.691406 92.703125 -105.945312 92.703125 -109.65625 C 92.703125 -111.945312 92.050781 -114.117188 90.75 -116.171875 C 89.445312 -118.222656 86.695312 -119.25 82.5 -119.25 C 78.101562 -119.25 73.628906 -118.648438 69.078125 -117.453125 C 64.523438 -116.253906 60 -114.65625 55.5 -112.65625 C 50.800781 -110.550781 46.050781 -108.023438 41.25 -105.078125 C 36.445312 -102.128906 31.921875 -98.976562 27.671875 -95.625 C 23.421875 -92.269531 19.769531 -88.96875 16.71875 -85.71875 C 13.675781 -82.46875 11.550781 -79.546875 10.34375 -76.953125 C 10.84375 -75.847656 10.867188 -74.394531 10.421875 -72.59375 C 9.972656 -70.800781 8.898438 -69.800781 7.203125 -69.59375 C 5.503906 -69.394531 4.15625 -69.769531 3.15625 -70.71875 C 2.15625 -71.675781 1.703125 -72.953125 1.796875 -74.546875 C 1.898438 -76.953125 3.078125 -79.703125 5.328125 -82.796875 C 7.578125 -85.898438 10.523438 -89.175781 14.171875 -92.625 C 17.828125 -96.070312 21.851562 -99.445312 26.25 -102.75 C 30.644531 -106.050781 35.117188 -109.097656 39.671875 -111.890625 C 44.222656 -114.691406 48.5 -117.046875 52.5 -118.953125 C 57.5 -121.253906 62.570312 -123.101562 67.71875 -124.5 C 72.875 -125.894531 78.148438 -126.59375 83.546875 -126.59375 C 88.148438 -126.59375 92 -125.039062 95.09375 -121.9375 C 98.195312 -118.84375 99.75 -114.644531 99.75 -109.34375 C 99.75 -104.25 97.921875 -98.125 94.265625 -90.96875 C 90.617188 -83.820312 85.671875 -75.921875 79.421875 -67.265625 C 73.171875 -58.617188 66.046875 -49.546875 58.046875 -40.046875 C 64.242188 -40.453125 70.992188 -41.226562 78.296875 -42.375 C 85.597656 -43.519531 92.921875 -44.992188 100.265625 -46.796875 C 107.617188 -48.597656 114.59375 -50.625 121.1875 -52.875 C 127.789062 -55.125 133.546875 -57.5 138.453125 -60 C 140.148438 -60.894531 142.070312 -61.867188 144.21875 -62.921875 C 146.375 -63.972656 148.550781 -65.148438 150.75 -66.453125 C 156.351562 -74.148438 161.78125 -81.398438 167.03125 -88.203125 C 172.28125 -95.003906 177.203125 -100.976562 181.796875 -106.125 C 186.398438 -111.269531 190.5 -115.289062 194.09375 -118.1875 C 197.695312 -121.09375 200.648438 -122.546875 202.953125 -122.546875 C 204.847656 -122.546875 206.59375 -121.867188 208.1875 -120.515625 C 209.789062 -119.171875 210.59375 -117.5 210.59375 -115.5 Z M 168.90625 -77.546875 C 174 -81.148438 178.742188 -84.847656 183.140625 -88.640625 C 187.546875 -92.441406 191.320312 -96.019531 194.46875 -99.375 C 197.625 -102.726562 199.898438 -105.578125 201.296875 -107.921875 C 202.703125 -110.273438 202.851562 -111.800781 201.75 -112.5 C 200.25 -113.394531 197.550781 -111.742188 193.65625 -107.546875 C 190.550781 -104.347656 186.820312 -100.046875 182.46875 -94.640625 C 178.125 -89.242188 173.601562 -83.546875 168.90625 -77.546875 Z M 28.65625 -34.796875 C 29.15625 -31.203125 29.003906 -27.53125 28.203125 -23.78125 C 27.398438 -20.03125 26.148438 -16.253906 24.453125 -12.453125 C 27.648438 -15.953125 30.722656 -19.398438 33.671875 -22.796875 C 36.617188 -26.203125 39.492188 -29.550781 42.296875 -32.84375 C 39.492188 -33.050781 36.96875 -33.328125 34.71875 -33.671875 C 32.46875 -34.023438 30.445312 -34.398438 28.65625 -34.796875 Z M 28.65625 -34.796875 "/></g></g></g><g fill="#ff914d" fill-opacity="1"><g transform="translate(246.285639, 229.124985)"><g><path d="M 14.84375 5.546875 C 13.644531 5.546875 12.769531 5.070312 12.21875 4.125 C 11.675781 3.175781 11.40625 2.203125 11.40625 1.203125 C 11.40625 -0.296875 11.90625 -1.867188 12.90625 -3.515625 C 13.90625 -5.171875 15.128906 -6.570312 16.578125 -7.71875 C 18.023438 -8.875 19.550781 -9.453125 21.15625 -9.453125 C 22.15625 -9.453125 23.003906 -9.125 23.703125 -8.46875 C 24.398438 -7.820312 24.75 -6.898438 24.75 -5.703125 C 24.75 -4.203125 24.347656 -3.078125 23.546875 -2.328125 C 22.742188 -1.578125 21.945312 -0.703125 21.15625 0.296875 C 20.15625 1.296875 19.203125 2.421875 18.296875 3.671875 C 17.398438 4.921875 16.25 5.546875 14.84375 5.546875 Z M 14.84375 5.546875 "/></g></g></g></svg>