<svg xmlns="http://www.w3.org/2000/svg" xmlns:xlink="http://www.w3.org/1999/xlink" width="1920" zoomAndPan="magnify" viewBox="0 0 1440 809.999993" height="1080" preserveAspectRatio="xMidYMid meet" version="1.0"><defs><g/></defs><g fill="#ff914d" fill-opacity="1"><g transform="translate(132.06985, 502.460644)"><g><path d="M 500.390625 -274.4375 C 500.390625 -265.164062 497.003906 -255.066406 490.234375 -244.140625 C 483.460938 -233.210938 474.132812 -221.925781 462.25 -210.28125 C 450.375 -198.632812 436.59375 -187.109375 420.90625 -175.703125 C 405.226562 -164.296875 388.363281 -153.367188 370.3125 -142.921875 C 365.082031 -135.796875 360.207031 -129.023438 355.6875 -122.609375 C 351.175781 -116.191406 347.019531 -110.25 343.21875 -104.78125 C 330.863281 -86.957031 318.742188 -69.195312 306.859375 -51.5 C 294.984375 -33.800781 283.9375 -17.347656 273.71875 -2.140625 C 263.5 13.066406 254.644531 26.191406 247.15625 37.234375 C 239.675781 48.285156 234.273438 56.304688 230.953125 61.296875 C 237.835938 53.691406 243.421875 47.15625 247.703125 41.6875 C 251.984375 36.226562 255.90625 31.957031 259.46875 28.875 C 262.550781 26.019531 264.625 25.125 265.6875 26.1875 C 266.757812 27.257812 267.054688 29.222656 266.578125 32.078125 C 266.109375 34.929688 264.925781 37.546875 263.03125 39.921875 C 259.695312 44.671875 255.296875 51.554688 249.828125 60.578125 C 244.367188 69.609375 238.550781 79.46875 232.375 90.15625 C 226.195312 100.851562 220.140625 111.015625 214.203125 120.640625 C 208.265625 130.265625 203.097656 138.164062 198.703125 144.34375 C 194.304688 150.519531 191.273438 153.609375 189.609375 153.609375 C 185.097656 153.847656 182.304688 152.300781 181.234375 148.96875 C 180.160156 145.644531 179.03125 142.5625 177.84375 139.71875 C 175.707031 134.25 176.0625 127.945312 178.90625 120.8125 C 181.757812 113.6875 185.566406 105.132812 190.328125 95.15625 C 195.785156 83.988281 203.085938 70.976562 212.234375 56.125 C 221.390625 41.28125 231.90625 25.1875 243.78125 7.84375 C 255.664062 -9.5 268.082031 -27.554688 281.03125 -46.328125 C 293.976562 -65.097656 306.867188 -83.867188 319.703125 -102.640625 C 322.078125 -105.972656 324.453125 -109.421875 326.828125 -112.984375 C 329.203125 -116.546875 331.578125 -119.988281 333.953125 -123.3125 C 320.171875 -116.664062 304.25 -110.550781 286.1875 -104.96875 C 268.132812 -99.382812 249.304688 -94.570312 229.703125 -90.53125 C 210.097656 -86.488281 191.085938 -83.335938 172.671875 -81.078125 C 154.265625 -78.828125 137.691406 -77.582031 122.953125 -77.34375 C 106.796875 -58.570312 89.925781 -39.382812 72.34375 -19.78125 C 54.757812 -0.175781 37.179688 19.242188 19.609375 38.484375 C 16.515625 41.816406 13.066406 43.363281 9.265625 43.125 C 5.460938 42.882812 2.671875 41.457031 0.890625 38.84375 C -0.890625 36.226562 -0.351562 33.378906 2.5 30.296875 C 10.332031 18.179688 17.988281 5.882812 25.46875 -6.59375 C 32.957031 -19.070312 39.078125 -31.070312 43.828125 -42.59375 C 48.585938 -54.113281 50.726562 -64.390625 50.25 -73.421875 C 49.78125 -82.453125 45.265625 -89.34375 36.703125 -94.09375 C 34.804688 -95.039062 34.210938 -97.175781 34.921875 -100.5 C 35.640625 -103.832031 37.125 -106.804688 39.375 -109.421875 C 41.632812 -112.035156 43.832031 -112.863281 45.96875 -111.90625 C 47.875 -110.957031 49.835938 -110.007812 51.859375 -109.0625 C 53.878906 -108.113281 56.078125 -107.046875 58.453125 -105.859375 L 58.8125 -106.203125 L 59.15625 -105.859375 C 65.101562 -103.242188 72.289062 -100.804688 80.71875 -98.546875 C 89.15625 -96.285156 100.382812 -94.921875 114.40625 -94.453125 C 136.269531 -120.585938 155.097656 -144.523438 170.890625 -166.265625 C 186.691406 -188.003906 198.867188 -206.953125 207.421875 -223.109375 C 215.984375 -239.265625 220.265625 -251.738281 220.265625 -260.53125 C 220.265625 -266 218.71875 -271.164062 215.625 -276.03125 C 212.539062 -280.90625 206.003906 -283.34375 196.015625 -283.34375 C 185.566406 -283.34375 174.9375 -281.914062 164.125 -279.0625 C 153.3125 -276.21875 142.5625 -272.414062 131.875 -267.65625 C 120.707031 -262.664062 109.421875 -256.664062 98.015625 -249.65625 C 86.609375 -242.65625 75.851562 -235.171875 65.75 -227.203125 C 55.65625 -219.242188 46.984375 -211.40625 39.734375 -203.6875 C 32.492188 -195.96875 27.445312 -189.019531 24.59375 -182.84375 C 25.78125 -180.226562 25.835938 -176.78125 24.765625 -172.5 C 23.703125 -168.21875 21.148438 -165.84375 17.109375 -165.375 C 13.066406 -164.894531 9.859375 -165.785156 7.484375 -168.046875 C 5.109375 -170.304688 4.039062 -173.335938 4.28125 -177.140625 C 4.519531 -182.835938 7.3125 -189.367188 12.65625 -196.734375 C 18 -204.097656 25.003906 -211.878906 33.671875 -220.078125 C 42.347656 -228.273438 51.910156 -236.296875 62.359375 -244.140625 C 72.816406 -251.984375 83.453125 -259.226562 94.265625 -265.875 C 105.078125 -272.53125 115.234375 -278.113281 124.734375 -282.625 C 136.617188 -288.09375 148.675781 -292.488281 160.90625 -295.8125 C 173.144531 -299.144531 185.679688 -300.8125 198.515625 -300.8125 C 209.441406 -300.8125 218.585938 -297.125 225.953125 -289.75 C 233.328125 -282.382812 237.015625 -272.40625 237.015625 -259.8125 C 237.015625 -247.695312 232.675781 -233.144531 224 -216.15625 C 215.332031 -199.164062 203.570312 -180.394531 188.71875 -159.84375 C 173.863281 -139.289062 156.929688 -117.726562 137.921875 -95.15625 C 152.660156 -96.113281 168.703125 -97.957031 186.046875 -100.6875 C 203.390625 -103.414062 220.789062 -106.914062 238.25 -111.1875 C 255.71875 -115.46875 272.289062 -120.28125 287.96875 -125.625 C 303.65625 -130.976562 317.320312 -136.625 328.96875 -142.5625 C 333 -144.695312 337.566406 -147.007812 342.671875 -149.5 C 347.785156 -152 352.957031 -154.796875 358.1875 -157.890625 C 371.488281 -176.179688 384.375 -193.40625 396.84375 -209.5625 C 409.320312 -225.71875 421.023438 -239.914062 431.953125 -252.15625 C 442.890625 -264.394531 452.632812 -273.957031 461.1875 -280.84375 C 469.738281 -287.738281 476.75 -291.1875 482.21875 -291.1875 C 486.726562 -291.1875 490.882812 -289.582031 494.6875 -286.375 C 498.488281 -283.164062 500.390625 -279.1875 500.390625 -274.4375 Z M 401.3125 -184.265625 C 413.425781 -192.816406 424.710938 -201.601562 435.171875 -210.625 C 445.628906 -219.65625 454.597656 -228.148438 462.078125 -236.109375 C 469.566406 -244.078125 474.972656 -250.851562 478.296875 -256.4375 C 481.617188 -262.019531 481.972656 -265.640625 479.359375 -267.296875 C 475.796875 -269.441406 469.382812 -265.523438 460.125 -255.546875 C 452.757812 -247.941406 443.90625 -237.722656 433.5625 -224.890625 C 423.226562 -212.054688 412.476562 -198.515625 401.3125 -184.265625 Z M 68.078125 -82.6875 C 69.265625 -74.132812 68.90625 -65.398438 67 -56.484375 C 65.101562 -47.578125 62.132812 -38.609375 58.09375 -29.578125 C 65.695312 -37.898438 73.003906 -46.097656 80.015625 -54.171875 C 87.023438 -62.253906 93.851562 -70.210938 100.5 -78.046875 C 93.851562 -78.523438 87.851562 -79.179688 82.5 -80.015625 C 77.15625 -80.847656 72.347656 -81.738281 68.078125 -82.6875 Z M 68.078125 -82.6875 "/></g></g></g><g fill="#ff914d" fill-opacity="1"><g transform="translate(483.116385, 502.460644)"><g><path d="M 189.609375 -86.96875 C 191.742188 -89.101562 193.164062 -88.863281 193.875 -86.25 C 194.59375 -83.632812 194.359375 -80.25 193.171875 -76.09375 C 191.984375 -71.9375 189.726562 -68.3125 186.40625 -65.21875 C 185.21875 -64.269531 182.304688 -61.476562 177.671875 -56.84375 C 173.035156 -52.207031 167.332031 -46.5625 160.5625 -39.90625 C 153.789062 -33.257812 146.484375 -26.367188 138.640625 -19.234375 C 130.796875 -12.109375 123.015625 -5.398438 115.296875 0.890625 C 107.578125 7.179688 100.566406 12.285156 94.265625 16.203125 C 87.972656 20.128906 83.046875 22.09375 79.484375 22.09375 C 75.203125 22.09375 71.28125 19.71875 67.71875 14.96875 C 64.15625 10.21875 62.375 5.820312 62.375 1.78125 C 62.375 -5.820312 64.390625 -14.195312 68.421875 -23.34375 C 72.460938 -32.488281 78.164062 -42.644531 85.53125 -53.8125 C 76.507812 -45.5 67.242188 -37.179688 57.734375 -28.859375 C 48.234375 -20.546875 39.617188 -13.65625 31.890625 -8.1875 C 24.171875 -2.726562 18.289062 0 14.25 0 C 10.21875 0 6.238281 -2.132812 2.3125 -6.40625 C -1.601562 -10.6875 -3.5625 -16.035156 -3.5625 -22.453125 C -3.5625 -27.679688 -1.546875 -34.15625 2.484375 -41.875 C 6.523438 -49.59375 11.875 -57.789062 18.53125 -66.46875 C 25.1875 -75.144531 32.613281 -83.695312 40.8125 -92.125 C 49.007812 -100.5625 57.207031 -108.285156 65.40625 -115.296875 C 73.601562 -122.304688 81.203125 -127.890625 88.203125 -132.046875 C 95.210938 -136.203125 100.976562 -138.28125 105.5 -138.28125 C 112.625 -138.28125 119.15625 -136.4375 125.09375 -132.75 C 131.039062 -129.070312 135.082031 -125.210938 137.21875 -121.171875 C 140.300781 -124.742188 143.566406 -128.367188 147.015625 -132.046875 C 150.460938 -135.734375 153.726562 -138.40625 156.8125 -140.0625 C 158.71875 -141.25 160.859375 -141.25 163.234375 -140.0625 C 165.609375 -138.875 167.742188 -137.148438 169.640625 -134.890625 C 171.546875 -132.640625 172.734375 -130.5625 173.203125 -128.65625 C 173.679688 -126.757812 172.851562 -125.691406 170.71875 -125.453125 C 168.582031 -125.210938 164.660156 -122.238281 158.953125 -116.53125 C 153.253906 -110.832031 146.722656 -103.585938 139.359375 -94.796875 C 131.992188 -86.003906 124.507812 -76.5625 116.90625 -66.46875 C 109.300781 -56.375 102.410156 -46.570312 96.234375 -37.0625 C 90.054688 -27.5625 85.539062 -19.425781 82.6875 -12.65625 C 79.832031 -5.882812 79.359375 -1.425781 81.265625 0.71875 C 82.691406 2.132812 86.015625 1.300781 91.234375 -1.78125 C 96.460938 -4.875 102.816406 -9.390625 110.296875 -15.328125 C 117.785156 -21.265625 125.6875 -27.851562 134 -35.09375 C 142.320312 -42.34375 150.34375 -49.53125 158.0625 -56.65625 C 165.789062 -63.789062 172.445312 -70.085938 178.03125 -75.546875 C 183.613281 -81.015625 187.472656 -84.820312 189.609375 -86.96875 Z M 14.25 -21.390625 C 15.4375 -19.960938 18.46875 -20.613281 23.34375 -23.34375 C 28.21875 -26.070312 34.273438 -30.171875 41.515625 -35.640625 C 48.765625 -41.109375 56.488281 -47.285156 64.6875 -54.171875 C 72.882812 -61.066406 80.84375 -68.015625 88.5625 -75.015625 C 96.289062 -82.023438 103.125 -88.378906 109.0625 -94.078125 C 115 -99.785156 119.273438 -104.1875 121.890625 -107.28125 C 121.179688 -109.175781 119.222656 -111.609375 116.015625 -114.578125 C 112.804688 -117.554688 109.179688 -119.046875 105.140625 -119.046875 C 100.859375 -119.046875 95.507812 -116.960938 89.09375 -112.796875 C 82.6875 -108.640625 75.796875 -103.175781 68.421875 -96.40625 C 61.054688 -89.632812 53.925781 -82.328125 47.03125 -74.484375 C 40.144531 -66.648438 33.96875 -59.046875 28.5 -51.671875 C 23.039062 -44.304688 18.945312 -37.890625 16.21875 -32.421875 C 13.488281 -26.960938 12.832031 -23.285156 14.25 -21.390625 Z M 14.25 -21.390625 "/></g></g></g><g fill="#ff914d" fill-opacity="1"><g transform="translate(632.801177, 502.460644)"><g><path d="M -7.125 22.09375 C -9.738281 22.09375 -11.992188 20.609375 -13.890625 17.640625 C -15.796875 14.671875 -17.046875 11.285156 -17.640625 7.484375 C -18.234375 3.679688 -17.816406 0.59375 -16.390625 -1.78125 C -10.929688 -11.050781 -4.519531 -21.382812 2.84375 -32.78125 C 10.21875 -44.1875 18.179688 -55.945312 26.734375 -68.0625 C 35.285156 -80.1875 44.070312 -92.128906 53.09375 -103.890625 C 62.125 -115.648438 70.800781 -126.398438 79.125 -136.140625 C 81.019531 -138.523438 83.273438 -139.003906 85.890625 -137.578125 C 88.503906 -136.148438 90.820312 -133.953125 92.84375 -130.984375 C 94.863281 -128.015625 96.109375 -125.28125 96.578125 -122.78125 C 97.054688 -120.289062 96.109375 -119.046875 93.734375 -119.046875 C 92.304688 -119.046875 89.515625 -117.082031 85.359375 -113.15625 C 81.203125 -109.238281 76.390625 -104.191406 70.921875 -98.015625 C 65.460938 -91.835938 59.878906 -85.179688 54.171875 -78.046875 C 51.316406 -74.484375 48.109375 -70.265625 44.546875 -65.390625 C 40.984375 -60.523438 37.65625 -55.894531 34.5625 -51.5 C 31.476562 -47.101562 29.222656 -43.773438 27.796875 -41.515625 C 26.367188 -39.265625 26.488281 -38.851562 28.15625 -40.28125 C 42.882812 -53.582031 57.316406 -66.113281 71.453125 -77.875 C 85.597656 -89.632812 98.550781 -99.96875 110.3125 -108.875 C 122.070312 -117.789062 132.050781 -124.800781 140.25 -129.90625 C 148.445312 -135.019531 154.085938 -137.578125 157.171875 -137.578125 C 160.503906 -137.578125 162.878906 -136.03125 164.296875 -132.9375 C 167.390625 -131.039062 168.9375 -128.90625 168.9375 -126.53125 C 168.9375 -125.101562 167.035156 -121.65625 163.234375 -116.1875 C 159.429688 -110.71875 154.675781 -104.0625 148.96875 -96.21875 C 143.269531 -88.382812 137.269531 -80.191406 130.96875 -71.640625 C 124.675781 -63.085938 118.972656 -54.890625 113.859375 -47.046875 C 108.753906 -39.203125 105.015625 -32.367188 102.640625 -26.546875 C 100.265625 -20.722656 100.03125 -16.742188 101.9375 -14.609375 C 103.363281 -13.179688 106.332031 -13.597656 110.84375 -15.859375 C 115.351562 -18.117188 120.753906 -21.679688 127.046875 -26.546875 C 133.347656 -31.421875 139.941406 -36.828125 146.828125 -42.765625 C 153.722656 -48.703125 160.4375 -54.703125 166.96875 -60.765625 C 173.507812 -66.828125 179.210938 -72.171875 184.078125 -76.796875 C 188.953125 -81.429688 192.457031 -84.820312 194.59375 -86.96875 C 196.738281 -89.101562 198.222656 -88.863281 199.046875 -86.25 C 199.878906 -83.632812 199.757812 -80.25 198.6875 -76.09375 C 197.625 -71.9375 195.429688 -68.3125 192.109375 -65.21875 C 190.679688 -64.03125 187.410156 -60.820312 182.296875 -55.59375 C 177.191406 -50.375 170.957031 -44.257812 163.59375 -37.25 C 156.226562 -30.238281 148.503906 -23.40625 140.421875 -16.75 C 132.347656 -10.09375 124.804688 -4.507812 117.796875 0 C 110.785156 4.507812 105.019531 6.765625 100.5 6.765625 C 94.800781 6.765625 90.050781 4.390625 86.25 -0.359375 C 82.445312 -5.109375 80.546875 -9.503906 80.546875 -13.546875 C 80.546875 -18.773438 82.382812 -24.953125 86.0625 -32.078125 C 89.75 -39.203125 94.207031 -46.625 99.4375 -54.34375 C 104.664062 -62.070312 109.832031 -69.257812 114.9375 -75.90625 C 120.050781 -82.5625 124.148438 -88.144531 127.234375 -92.65625 C 130.328125 -97.175781 131.394531 -99.789062 130.4375 -100.5 C 129.726562 -101.21875 127 -99.972656 122.25 -96.765625 C 117.5 -93.554688 111.554688 -89.21875 104.421875 -83.75 C 97.296875 -78.289062 89.632812 -72.175781 81.4375 -65.40625 C 73.238281 -58.632812 65.160156 -51.742188 57.203125 -44.734375 C 49.242188 -37.722656 42.175781 -31.1875 36 -25.125 C 29.820312 -19.0625 25.066406 -14.128906 21.734375 -10.328125 C 13.660156 -0.828125 7.484375 6.945312 3.203125 13 C -1.066406 19.0625 -4.507812 22.09375 -7.125 22.09375 Z M -7.125 22.09375 "/></g></g></g><g fill="#ff914d" fill-opacity="1"><g transform="translate(787.831876, 502.460644)"><g><path d="M 145.0625 -131.15625 C 148.144531 -130.207031 150.632812 -128.484375 152.53125 -125.984375 C 154.4375 -123.492188 155.625 -121.117188 156.09375 -118.859375 C 156.570312 -116.597656 156.21875 -115.46875 155.03125 -115.46875 C 152.65625 -115.46875 150.335938 -114.335938 148.078125 -112.078125 C 145.828125 -109.828125 143.632812 -107.394531 141.5 -104.78125 C 134.363281 -96.226562 126.28125 -85.65625 117.25 -73.0625 C 108.226562 -60.46875 98.546875 -46.863281 88.203125 -32.25 C 77.867188 -17.632812 66.882812 -2.960938 55.25 11.765625 C 44.550781 25.304688 33.378906 38.96875 21.734375 52.75 C 10.097656 66.53125 -1.179688 79.125 -12.109375 90.53125 C -23.046875 101.9375 -32.671875 111.082031 -40.984375 117.96875 C -49.296875 124.863281 -55.59375 128.425781 -59.875 128.65625 C -63.914062 128.894531 -67.359375 126.398438 -70.203125 121.171875 C -73.054688 115.953125 -74.601562 110.726562 -74.84375 105.5 C -75.082031 100.976562 -74.546875 95.6875 -73.234375 89.625 C -71.929688 83.570312 -70.390625 77.753906 -68.609375 72.171875 C -66.828125 66.585938 -65.34375 62.25 -64.15625 59.15625 C -59.875 47.988281 -56.425781 40.679688 -53.8125 37.234375 C -51.195312 33.796875 -49.414062 32.789062 -48.46875 34.21875 C -47.519531 35.644531 -47.398438 37.898438 -48.109375 40.984375 C -51.910156 56.429688 -54.703125 69.796875 -56.484375 81.078125 C -58.265625 92.367188 -57.734375 99.082031 -54.890625 101.21875 C -52.984375 102.40625 -48.171875 99.789062 -40.453125 93.375 C -32.734375 86.957031 -23.644531 78.046875 -13.1875 66.640625 C -1.78125 54.285156 9.265625 41.457031 19.953125 28.15625 C 30.648438 14.851562 41.816406 0.476562 53.453125 -14.96875 C 65.097656 -30.414062 77.8125 -47.523438 91.59375 -66.296875 C 84.46875 -60.117188 76.742188 -53.582031 68.421875 -46.6875 C 60.109375 -39.800781 52.269531 -34.039062 44.90625 -29.40625 C 37.539062 -24.769531 31.71875 -22.453125 27.4375 -22.453125 C 23.40625 -22.453125 19.425781 -24.585938 15.5 -28.859375 C 11.582031 -33.140625 9.625 -38.488281 9.625 -44.90625 C 9.625 -49.414062 12.054688 -55.648438 16.921875 -63.609375 C 21.796875 -71.578125 28.035156 -80.015625 35.640625 -88.921875 C 43.242188 -97.828125 51.441406 -106.257812 60.234375 -114.21875 C 69.023438 -122.1875 77.457031 -128.722656 85.53125 -133.828125 C 93.613281 -138.941406 100.390625 -141.5 105.859375 -141.5 C 112.503906 -141.5 118.257812 -139.65625 123.125 -135.96875 C 128 -132.28125 131.984375 -128.65625 135.078125 -125.09375 C 136.265625 -126.519531 137.804688 -128.003906 139.703125 -129.546875 C 141.609375 -131.097656 143.394531 -131.632812 145.0625 -131.15625 Z M 27.4375 -43.84375 C 28.625 -42.175781 32.007812 -42.765625 37.59375 -45.609375 C 43.175781 -48.460938 49.890625 -52.679688 57.734375 -58.265625 C 65.578125 -63.847656 73.535156 -70.023438 81.609375 -76.796875 C 89.691406 -83.578125 97.054688 -89.992188 103.703125 -96.046875 C 110.359375 -102.109375 115.234375 -106.921875 118.328125 -110.484375 C 117.609375 -112.390625 115.644531 -114.828125 112.4375 -117.796875 C 109.238281 -120.765625 105.617188 -122.25 101.578125 -122.25 C 97.535156 -122.25 92.1875 -119.8125 85.53125 -114.9375 C 78.882812 -110.070312 71.992188 -104.015625 64.859375 -96.765625 C 57.734375 -89.515625 51.140625 -82.085938 45.078125 -74.484375 C 39.023438 -66.878906 34.273438 -60.222656 30.828125 -54.515625 C 27.378906 -48.816406 26.25 -45.257812 27.4375 -43.84375 Z M 27.4375 -43.84375 "/></g></g></g><g fill="#ff914d" fill-opacity="1"><g transform="translate(910.074461, 502.460644)"><g><path d="M 173.921875 -115.828125 C 177.484375 -117.492188 178.789062 -116.898438 177.84375 -114.046875 C 176.894531 -111.191406 172.617188 -107.507812 165.015625 -103 C 157.410156 -98.726562 149.035156 -95.519531 139.890625 -93.375 C 130.742188 -91.238281 122.25 -90.289062 114.40625 -90.53125 C 112.507812 -90.53125 110.664062 -90.707031 108.875 -91.0625 C 107.09375 -91.414062 105.253906 -91.710938 103.359375 -91.953125 C 100.265625 -86.484375 95.390625 -79.175781 88.734375 -70.03125 C 82.085938 -60.882812 74.425781 -51.144531 65.75 -40.8125 C 57.082031 -30.476562 48.289062 -20.734375 39.375 -11.578125 C 30.46875 -2.429688 22.148438 4.929688 14.421875 10.515625 C 6.703125 16.097656 0.46875 18.769531 -4.28125 18.53125 C -6.894531 18.289062 -10.160156 16.625 -14.078125 13.53125 C -17.992188 10.445312 -19.835938 5.9375 -19.609375 0 C -19.609375 -2.375 -17.765625 -6.769531 -14.078125 -13.1875 C -10.390625 -19.601562 -5.519531 -27.320312 0.53125 -36.34375 C 6.59375 -45.375 13.425781 -54.9375 21.03125 -65.03125 C 28.632812 -75.132812 36.414062 -85.113281 44.375 -94.96875 C 52.332031 -104.832031 60.050781 -113.742188 67.53125 -121.703125 C 75.019531 -129.671875 81.734375 -136.085938 87.671875 -140.953125 C 93.617188 -145.828125 98.132812 -148.265625 101.21875 -148.265625 C 104.78125 -148.265625 107.75 -147.132812 110.125 -144.875 C 112.5 -142.625 113.925781 -140.367188 114.40625 -138.109375 C 114.882812 -135.847656 113.9375 -134.71875 111.5625 -134.71875 C 109.894531 -134.71875 108.109375 -134.300781 106.203125 -133.46875 C 104.304688 -132.644531 102.289062 -131.519531 100.15625 -130.09375 C 103.476562 -127.945312 105.671875 -124.734375 106.734375 -120.453125 C 107.804688 -116.179688 108.109375 -111.550781 107.640625 -106.5625 C 109.296875 -106.320312 111.015625 -106.023438 112.796875 -105.671875 C 114.578125 -105.316406 116.421875 -105.140625 118.328125 -105.140625 C 123.316406 -105.140625 129.492188 -105.671875 136.859375 -106.734375 C 144.222656 -107.804688 151.347656 -109.175781 158.234375 -110.84375 C 165.128906 -112.507812 170.359375 -114.171875 173.921875 -115.828125 Z M 7.125 -10.328125 C 8.3125 -9.140625 11.101562 -10.085938 15.5 -13.171875 C 19.894531 -16.265625 25.0625 -20.84375 31 -26.90625 C 36.945312 -32.96875 43.125 -39.679688 49.53125 -47.046875 C 55.945312 -54.410156 61.945312 -61.710938 67.53125 -68.953125 C 73.125 -76.203125 77.703125 -82.675781 81.265625 -88.375 C 84.828125 -94.082031 86.609375 -98.242188 86.609375 -100.859375 L 86.609375 -103 C 84.472656 -105.613281 82.570312 -108.46875 80.90625 -111.5625 C 77.34375 -107.28125 72.351562 -101.335938 65.9375 -93.734375 C 59.519531 -86.128906 52.6875 -77.8125 45.4375 -68.78125 C 38.195312 -59.757812 31.425781 -51.03125 25.125 -42.59375 C 18.832031 -34.15625 13.960938 -26.96875 10.515625 -21.03125 C 7.066406 -15.09375 5.9375 -11.523438 7.125 -10.328125 Z M 7.125 -10.328125 "/></g></g></g><g fill="#ff914d" fill-opacity="1"><g transform="translate(1013.78467, 502.460644)"><g><path d="M 205.296875 -98.375 C 207.429688 -100.507812 208.613281 -99.972656 208.84375 -96.765625 C 209.082031 -93.554688 208.429688 -89.515625 206.890625 -84.640625 C 205.347656 -79.773438 202.914062 -75.796875 199.59375 -72.703125 C 198.40625 -71.753906 195.375 -68.722656 190.5 -63.609375 C 185.625 -58.503906 179.5625 -52.390625 172.3125 -45.265625 C 165.070312 -38.140625 157.234375 -30.65625 148.796875 -22.8125 C 140.359375 -14.96875 132.097656 -7.660156 124.015625 -0.890625 C 115.941406 5.878906 108.578125 11.398438 101.921875 15.671875 C 95.273438 19.953125 90.050781 22.09375 86.25 22.09375 C 81.96875 22.09375 78.046875 19.71875 74.484375 14.96875 C 70.921875 10.21875 69.140625 5.820312 69.140625 1.78125 C 69.140625 -7.25 71.929688 -17.164062 77.515625 -27.96875 C 83.097656 -38.78125 89.929688 -50.007812 98.015625 -61.65625 C 86.128906 -49.539062 74.066406 -38.375 61.828125 -28.15625 C 49.597656 -17.9375 38.726562 -9.738281 29.21875 -3.5625 C 19.71875 2.613281 12.945312 5.703125 8.90625 5.703125 C 5.101562 5.703125 1.597656 3.566406 -1.609375 -0.703125 C -4.816406 -4.984375 -6.421875 -9.617188 -6.421875 -14.609375 C -6.421875 -18.171875 -4.101562 -23.753906 0.53125 -31.359375 C 5.164062 -38.960938 11.046875 -47.515625 18.171875 -57.015625 C 25.304688 -66.523438 32.734375 -76.09375 40.453125 -85.71875 C 48.171875 -95.34375 55.414062 -104.191406 62.1875 -112.265625 C 68.957031 -120.347656 74.128906 -126.523438 77.703125 -130.796875 C 80.304688 -134.128906 82.851562 -135.257812 85.34375 -134.1875 C 87.84375 -133.113281 89.925781 -131.148438 91.59375 -128.296875 C 93.257812 -125.453125 94.207031 -122.722656 94.4375 -120.109375 C 94.675781 -117.492188 93.726562 -116.1875 91.59375 -116.1875 C 90.644531 -116.1875 88.921875 -115 86.421875 -112.625 C 83.929688 -110.25 81.378906 -107.515625 78.765625 -104.421875 C 74.253906 -99.203125 69.023438 -93.144531 63.078125 -86.25 C 57.140625 -79.363281 51.257812 -72.296875 45.4375 -65.046875 C 39.613281 -57.796875 34.382812 -50.960938 29.75 -44.546875 C 25.125 -38.128906 21.625 -32.78125 19.25 -28.5 C 16.875 -24.226562 16.394531 -21.5 17.8125 -20.3125 C 19.238281 -19.125 22.445312 -20.070312 27.4375 -23.15625 C 32.425781 -26.25 38.304688 -30.644531 45.078125 -36.34375 C 51.859375 -42.050781 58.988281 -48.171875 66.46875 -54.703125 C 73.957031 -61.242188 81.023438 -67.484375 87.671875 -73.421875 C 91.953125 -77.460938 97.535156 -82.867188 104.421875 -89.640625 C 111.316406 -96.410156 118.382812 -103.476562 125.625 -110.84375 C 132.875 -118.207031 139.289062 -124.679688 144.875 -130.265625 C 150.457031 -135.847656 154.082031 -139.351562 155.75 -140.78125 C 157.414062 -142.207031 159.492188 -142.207031 161.984375 -140.78125 C 164.484375 -139.351562 166.859375 -137.332031 169.109375 -134.71875 C 171.367188 -132.101562 172.851562 -129.664062 173.5625 -127.40625 C 174.28125 -125.15625 173.570312 -124.03125 171.4375 -124.03125 C 170.476562 -124.03125 167.503906 -121.296875 162.515625 -115.828125 C 157.523438 -110.367188 151.46875 -103.300781 144.34375 -94.625 C 137.21875 -85.945312 130.03125 -76.5625 122.78125 -66.46875 C 115.53125 -56.375 108.875 -46.570312 102.8125 -37.0625 C 96.757812 -27.5625 92.304688 -19.425781 89.453125 -12.65625 C 86.609375 -5.882812 86.132812 -1.425781 88.03125 0.71875 C 89.457031 2.132812 93.019531 1.0625 98.71875 -2.5 C 104.425781 -6.0625 111.316406 -11.285156 119.390625 -18.171875 C 127.472656 -25.066406 136.023438 -32.613281 145.046875 -40.8125 C 154.078125 -49.007812 162.8125 -57.144531 171.25 -65.21875 C 179.6875 -73.300781 186.929688 -80.3125 192.984375 -86.25 C 199.046875 -92.1875 203.148438 -96.226562 205.296875 -98.375 Z M 205.296875 -98.375 "/></g></g></g><g fill="#ff914d" fill-opacity="1"><g transform="translate(1168.458914, 502.460644)"><g><path d="M 108.34375 -137.578125 C 110.957031 -137.804688 114.398438 -137.921875 118.671875 -137.921875 C 122.953125 -137.921875 126.875 -137.625 130.4375 -137.03125 C 134.007812 -136.4375 135.910156 -134.953125 136.140625 -132.578125 C 136.617188 -129.015625 136.085938 -125.804688 134.546875 -122.953125 C 133.003906 -120.109375 131.28125 -118.804688 129.375 -119.046875 C 126.28125 -119.753906 120.515625 -120.40625 112.078125 -121 C 103.648438 -121.59375 95.28125 -121.414062 86.96875 -120.46875 C 76.507812 -107.632812 66.46875 -94.742188 56.84375 -81.796875 C 47.21875 -68.847656 38.78125 -56.847656 31.53125 -45.796875 C 24.289062 -34.742188 18.828125 -25.535156 15.140625 -18.171875 C 11.460938 -10.804688 10.457031 -6.296875 12.125 -4.640625 C 13.070312 -3.441406 16.039062 -4.390625 21.03125 -7.484375 C 26.019531 -10.578125 32.019531 -14.734375 39.03125 -19.953125 C 46.039062 -25.179688 53.164062 -30.707031 60.40625 -36.53125 C 67.65625 -42.351562 74.191406 -47.640625 80.015625 -52.390625 C 85.835938 -57.140625 89.9375 -60.347656 92.3125 -62.015625 C 94.925781 -63.910156 95.222656 -63.015625 93.203125 -59.328125 C 91.179688 -55.648438 86.722656 -50.007812 79.828125 -42.40625 C 77.929688 -40.269531 74.785156 -36.941406 70.390625 -32.421875 C 65.992188 -27.910156 60.882812 -22.921875 55.0625 -17.453125 C 49.238281 -11.992188 43.238281 -6.707031 37.0625 -1.59375 C 30.882812 3.507812 25.003906 7.664062 19.421875 10.875 C 13.835938 14.082031 9.023438 15.6875 4.984375 15.6875 C 1.179688 15.6875 -2.378906 13.601562 -5.703125 9.4375 C -9.023438 5.28125 -10.6875 0.945312 -10.6875 -3.5625 C -10.6875 -8.070312 -7.421875 -15.96875 -0.890625 -27.25 C 5.640625 -38.539062 14.488281 -51.96875 25.65625 -67.53125 C 36.820312 -83.101562 49.296875 -99.796875 63.078125 -117.609375 C 60.703125 -117.367188 58.679688 -117.128906 57.015625 -116.890625 C 55.359375 -116.660156 53.695312 -116.425781 52.03125 -116.1875 C 48.707031 -115.945312 45.5625 -117.015625 42.59375 -119.390625 C 39.625 -121.765625 37.957031 -124.378906 37.59375 -127.234375 C 37.238281 -130.085938 38.84375 -131.867188 42.40625 -132.578125 C 47.394531 -133.765625 52.800781 -134.597656 58.625 -135.078125 C 64.445312 -135.554688 70.804688 -135.910156 77.703125 -136.140625 L 81.609375 -141.140625 C 88.503906 -149.691406 96.164062 -159.253906 104.59375 -169.828125 C 113.03125 -180.398438 121.585938 -190.554688 130.265625 -200.296875 C 138.941406 -210.035156 147.140625 -218.171875 154.859375 -224.703125 C 162.578125 -231.242188 169.050781 -234.867188 174.28125 -235.578125 C 177.601562 -236.054688 179.859375 -235.109375 181.046875 -232.734375 C 182.242188 -230.359375 182.84375 -228.457031 182.84375 -227.03125 C 182.84375 -224.65625 180.109375 -220.082031 174.640625 -213.3125 C 169.171875 -206.539062 162.21875 -198.640625 153.78125 -189.609375 C 145.351562 -180.578125 136.5625 -171.425781 127.40625 -162.15625 C 118.257812 -152.894531 109.882812 -144.582031 102.28125 -137.21875 C 103.476562 -137.21875 104.550781 -137.273438 105.5 -137.390625 C 106.445312 -137.515625 107.394531 -137.578125 108.34375 -137.578125 Z M 108.34375 -137.578125 "/></g></g></g></svg>